# xmcd
#
# Track frame offsets: 
#        150
#        17910
#        36767
#        63562
#        94975
#        123292
#        151460
#        182315
#        201012
#        219325
#        237742
#        255060
#        272697
#        288145
#        311377
#
# Disc length: 4496 seconds
#
# Revision: 2
# Processed by: cddbd v1.5.2PL0 Copyright (c) Steve Scherf et al.
# Submitted via: ExactAudioCopy v1.1
#
DISCID=c8118e0f
DTITLE=Liz McComb - Le meilleur de Liz McComb
DYEAR=1900
DGENRE=Blues
TTITLE0=Don't Let The Devil Ride
TTITLE1=Open Your Eyes
TTITLE2=Rock My Soul
TTITLE3=In The Upper Room
TTITLE4=Travelling Shoes
TTITLE5=Motherless Child
TTITLE6=By The Rivers Of Babylone
TTITLE7=Elijah Rock
TTITLE8=Stand By Me
TTITLE9=Give Him Up
TTITLE10=Time Is Now
TTITLE11=What Happened To The Love
TTITLE12=Whenever You Pray
TTITLE13=Jesus Is A Rock
TTITLE14=Sinner Please
EXTD=ID3G:   0
EXTT0=
EXTT1=
EXTT2=
EXTT3=
EXTT4=
EXTT5=
EXTT6=
EXTT7=
EXTT8=
EXTT9=
EXTT10=
EXTT11=
EXTT12=
EXTT13=
EXTT14=
PLAYORDER=
